<svg width="24" height="21" viewBox="0 0 24 21" fill="none" xmlns="http://www.w3.org/2000/svg">
<g clip-path="url(#clip0_45_7)">
<path d="M17 18.6708H5C4.20435 18.6708 3.44129 18.4115 2.87868 17.9499C2.31607 17.4882 2 16.8621 2 16.2093V9.6452C2 9.42759 1.89464 9.21889 1.70711 9.06501C1.51957 8.91113 1.26522 8.82469 1 8.82469C0.734784 8.82469 0.48043 8.91113 0.292893 9.06501C0.105357 9.21889 0 9.42759 0 9.6452L0 16.2093C0 17.2974 0.526784 18.3409 1.46447 19.1103C2.40215 19.8796 3.67392 20.3119 5 20.3119H17C17.2652 20.3119 17.5196 20.2254 17.7071 20.0715C17.8946 19.9177 18 19.709 18 19.4914C18 19.2737 17.8946 19.065 17.7071 18.9112C17.5196 18.7573 17.2652 18.6708 17 18.6708ZM21 3.90161H7C6.20435 3.90161 5.44129 4.16095 4.87868 4.62258C4.31607 5.08421 4 5.71031 4 6.36315V14.5683C4 15.2211 4.31607 15.8472 4.87868 16.3088C5.44129 16.7705 6.20435 17.0298 7 17.0298H21C21.7956 17.0298 22.5587 16.7705 23.1213 16.3088C23.6839 15.8472 24 15.2211 24 14.5683V6.36315C24 5.71031 23.6839 5.08421 23.1213 4.62258C22.5587 4.16095 21.7956 3.90161 21 3.90161ZM20.59 5.54264L14.71 10.3673C14.617 10.4442 14.5064 10.5052 14.3846 10.5469C14.2627 10.5885 14.132 10.61 14 10.61C13.868 10.61 13.7373 10.5885 13.6154 10.5469C13.4936 10.5052 13.383 10.4442 13.29 10.3673L7.41 5.54264H20.59ZM22 14.5683C22 14.7859 21.8946 14.9946 21.7071 15.1485C21.5196 15.3023 21.2652 15.3888 21 15.3888H7C6.73478 15.3888 6.48043 15.3023 6.29289 15.1485C6.10536 14.9946 6 14.7859 6 14.5683V6.66674L11.88 11.4914C12.4425 11.9523 13.205 12.2112 14 12.2112C14.795 12.2112 15.5575 11.9523 16.12 11.4914L22 6.66674V14.5683Z" fill="white"/>
</g>
<defs>
<clipPath id="clip0_45_7">
<rect width="24" height="19.6923" fill="white" transform="translate(0 0.923096)"/>
</clipPath>
</defs>
</svg>
