<svg width="28" height="28" viewBox="0 0 28 28" fill="none" xmlns="http://www.w3.org/2000/svg">
<path d="M25.8667 0.666748H2.13335C1.74437 0.666748 1.37132 0.821272 1.09626 1.09632C0.821211 1.37138 0.666687 1.74443 0.666687 2.13341V25.8667C0.666687 26.0594 0.704624 26.2501 0.77833 26.428C0.852037 26.606 0.960071 26.7676 1.09626 26.9038C1.23246 27.04 1.39414 27.1481 1.57208 27.2218C1.75003 27.2955 1.94075 27.3334 2.13335 27.3334H14.9067V17.0001H11.44V13.0001H14.9067V10.0001C14.8349 9.29576 14.918 8.58425 15.1503 7.91546C15.3826 7.24668 15.7584 6.63681 16.2513 6.12863C16.7442 5.62045 17.3424 5.22627 18.0038 4.97373C18.6652 4.72119 19.3738 4.61642 20.08 4.66675C21.1178 4.66036 22.1551 4.71378 23.1867 4.82675V8.42675H21.0667C19.3867 8.42675 19.0667 9.22675 19.0667 10.3867V12.9601H23.0667L22.5467 16.9601H19.0667V27.3334H25.8667C26.0593 27.3334 26.25 27.2955 26.428 27.2218C26.6059 27.1481 26.7676 27.04 26.9038 26.9038C27.04 26.7676 27.148 26.606 27.2217 26.428C27.2954 26.2501 27.3334 26.0594 27.3334 25.8667V2.13341C27.3334 1.94081 27.2954 1.75009 27.2217 1.57215C27.148 1.3942 27.04 1.23252 26.9038 1.09632C26.7676 0.960132 26.6059 0.852098 26.428 0.778392C26.25 0.704685 26.0593 0.666748 25.8667 0.666748V0.666748Z" fill="white"/>
</svg>
