<svg width="28" height="28" viewBox="0 0 28 28" fill="none" xmlns="http://www.w3.org/2000/svg">
<path d="M21.12 5.28008C20.8036 5.28008 20.4942 5.37392 20.2311 5.54973C19.968 5.72554 19.7629 5.97543 19.6418 6.26779C19.5207 6.56015 19.489 6.88186 19.5508 7.19223C19.6125 7.5026 19.7649 7.78769 19.9887 8.01145C20.2124 8.23522 20.4975 8.3876 20.8079 8.44934C21.1182 8.51107 21.44 8.47939 21.7323 8.35829C22.0247 8.23719 22.2746 8.03211 22.4504 7.76899C22.6262 7.50588 22.72 7.19653 22.72 6.88008C22.72 6.45573 22.5515 6.04877 22.2514 5.74871C21.9513 5.44865 21.5444 5.28008 21.12 5.28008ZM27.2534 8.50675C27.2274 7.40048 27.0202 6.30595 26.64 5.26675C26.301 4.37759 25.7733 3.57245 25.0934 2.90675C24.4331 2.22332 23.6261 1.69898 22.7334 1.37341C21.6969 0.981629 20.6012 0.769695 19.4934 0.746748C18.08 0.666748 17.6267 0.666748 14 0.666748C10.3734 0.666748 9.92002 0.666748 8.50669 0.746748C7.39889 0.769695 6.30314 0.981629 5.26669 1.37341C4.37559 1.70228 3.56927 2.22616 2.90669 2.90675C2.22326 3.56699 1.69892 4.374 1.37335 5.26675C0.981568 6.30321 0.769634 7.39895 0.746687 8.50675C0.666687 9.92008 0.666687 10.3734 0.666687 14.0001C0.666687 17.6267 0.666687 18.0801 0.746687 19.4934C0.769634 20.6012 0.981568 21.697 1.37335 22.7334C1.69892 23.6262 2.22326 24.4332 2.90669 25.0934C3.56927 25.774 4.37559 26.2979 5.26669 26.6267C6.30314 27.0185 7.39889 27.2305 8.50669 27.2534C9.92002 27.3334 10.3734 27.3334 14 27.3334C17.6267 27.3334 18.08 27.3334 19.4934 27.2534C20.6012 27.2305 21.6969 27.0185 22.7334 26.6267C23.6261 26.3012 24.4331 25.7768 25.0934 25.0934C25.7763 24.4302 26.3045 23.6243 26.64 22.7334C27.0202 21.6942 27.2274 20.5997 27.2534 19.4934C27.2534 18.0801 27.3334 17.6267 27.3334 14.0001C27.3334 10.3734 27.3334 9.92008 27.2534 8.50675ZM24.8534 19.3334C24.8436 20.1798 24.6904 21.0184 24.4 21.8134C24.1871 22.3937 23.8452 22.918 23.4 23.3467C22.9676 23.7874 22.4443 24.1287 21.8667 24.3467C21.0716 24.6371 20.233 24.7904 19.3867 24.8001C18.0534 24.8667 17.56 24.8801 14.0534 24.8801C10.5467 24.8801 10.0534 24.8801 8.72002 24.8001C7.84121 24.8165 6.96615 24.6812 6.13335 24.4001C5.58106 24.1709 5.08183 23.8305 4.66669 23.4001C4.22414 22.9717 3.88648 22.447 3.68002 21.8667C3.3545 21.0603 3.17395 20.2027 3.14669 19.3334C3.14669 18.0001 3.06669 17.5067 3.06669 14.0001C3.06669 10.4934 3.06669 10.0001 3.14669 8.66675C3.15266 7.80149 3.31062 6.94401 3.61335 6.13341C3.84808 5.57063 4.20837 5.06896 4.66669 4.66675C5.07177 4.20831 5.5724 3.84421 6.13335 3.60008C6.94609 3.30681 7.80268 3.15352 8.66669 3.14675C10 3.14675 10.4934 3.06675 14 3.06675C17.5067 3.06675 18 3.06675 19.3334 3.14675C20.1797 3.15646 21.0183 3.30974 21.8134 3.60008C22.4193 3.82495 22.9631 4.19054 23.4 4.66675C23.837 5.07632 24.1784 5.57706 24.4 6.13341C24.6964 6.94533 24.8497 7.80245 24.8534 8.66675C24.92 10.0001 24.9334 10.4934 24.9334 14.0001C24.9334 17.5067 24.92 18.0001 24.8534 19.3334ZM14 7.16008C12.6478 7.16272 11.3266 7.56612 10.2036 8.31931C9.08048 9.07249 8.20586 10.1417 7.6902 11.3918C7.17454 12.6418 7.04099 14.0167 7.30641 15.3427C7.57184 16.6686 8.22434 17.8861 9.18146 18.8414C10.1386 19.7966 11.3574 20.4468 12.6838 20.7096C14.0103 20.9725 15.3849 20.8362 16.634 20.3181C17.883 19.8 18.9505 18.9233 19.7015 17.7988C20.4525 16.6743 20.8534 15.3523 20.8534 14.0001C20.8551 13.1002 20.679 12.2089 20.335 11.3774C19.9911 10.5458 19.4861 9.79049 18.8492 9.15482C18.2123 8.51914 17.456 8.01565 16.6238 7.67332C15.7915 7.33099 14.8999 7.15656 14 7.16008ZM14 18.4401C13.1219 18.4401 12.2634 18.1797 11.5333 17.6918C10.8031 17.2039 10.234 16.5105 9.89799 15.6992C9.56194 14.8879 9.47402 13.9952 9.64533 13.1339C9.81665 12.2726 10.2395 11.4815 10.8605 10.8605C11.4814 10.2396 12.2725 9.81671 13.1338 9.6454C13.9951 9.47408 14.8878 9.562 15.6991 9.89806C16.5104 10.2341 17.2039 10.8032 17.6917 11.5333C18.1796 12.2635 18.44 13.1219 18.44 14.0001C18.44 14.5832 18.3252 15.1605 18.102 15.6992C17.8789 16.2379 17.5519 16.7273 17.1396 17.1396C16.7273 17.5519 16.2378 17.879 15.6991 18.1021C15.1604 18.3252 14.5831 18.4401 14 18.4401Z" fill="white"/>
</svg>
