<svg width="24" height="24" viewBox="0 0 24 24" fill="none" xmlns="http://www.w3.org/2000/svg">
<path fill-rule="evenodd" clip-rule="evenodd" d="M12 24C9.015 24 3 14.271 3 8.973C3 4.017 7.029 0 12 0C16.971 0 21 4.017 21 8.973C21 14.271 14.985 24 12 24ZM12 3.042C8.703 3.033 6.0195 5.685 6 8.973C6.3045 11.838 7.32 14.5785 8.958 16.953C9.648 18.084 10.431 19.158 11.304 20.154C11.658 20.529 12 20.838 12 20.838C12 20.838 12.345 20.538 12.6975 20.154C13.5705 19.1565 14.355 18.084 15.042 16.9515C16.677 14.5815 17.697 11.8365 18 8.9745C17.9805 5.6865 15.297 3.0345 12 3.0435V3.042ZM12 12.036C10.3575 12.0255 9.0345 10.6905 9.042 9.051C9.0495 7.416 10.386 6.093 12.027 6.096C13.671 6.102 15.0015 7.431 15 9.066C14.997 9.858 14.679 10.6155 14.115 11.172C13.554 11.727 12.792 12.042 12 12.036Z" fill="white"/>
</svg>
