<svg width="28" height="22" viewBox="0 0 28 22" fill="none" xmlns="http://www.w3.org/2000/svg">
<path d="M27.3334 2.73337C26.3311 3.16816 25.2713 3.45559 24.1867 3.5867C25.3309 2.90313 26.1884 1.82775 26.6 0.560035C25.5248 1.20012 24.3477 1.6511 23.12 1.89337C22.2994 1.00346 21.2066 0.411097 20.0131 0.209171C18.8196 0.00724409 17.5927 0.20718 16.5251 0.777621C15.4574 1.34806 14.6093 2.25674 14.1137 3.36115C13.6181 4.46556 13.5031 5.70322 13.7867 6.88003C11.6126 6.77007 9.48594 6.20397 7.54489 5.21852C5.60384 4.23306 3.89182 2.85029 2.52002 1.16004C2.03887 2.00026 1.78605 2.9518 1.78669 3.92004C1.78498 4.81921 2.00564 5.70486 2.42903 6.49812C2.85241 7.29138 3.46538 7.96765 4.21335 8.4667C3.34399 8.44305 2.4932 8.20977 1.73335 7.7867V7.85337C1.73987 9.11322 2.18135 10.3322 2.98311 11.304C3.78487 12.2758 4.8977 12.9409 6.13335 13.1867C5.65769 13.3315 5.16385 13.4078 4.66669 13.4134C4.32254 13.4093 3.97925 13.3781 3.64002 13.32C3.9919 14.4038 4.67285 15.3509 5.58812 16.0296C6.50339 16.7083 7.60746 17.0848 8.74669 17.1067C6.82296 18.6204 4.44787 19.4465 2.00002 19.4534C1.55433 19.4548 1.109 19.4281 0.666687 19.3734C3.16593 20.987 6.07844 21.8437 9.05335 21.84C11.1063 21.8614 13.1429 21.4734 15.0442 20.6988C16.9455 19.9242 18.6734 18.7785 20.127 17.3287C21.5805 15.8788 22.7306 14.1539 23.5101 12.2546C24.2896 10.3553 24.6827 8.31967 24.6667 6.2667C24.6667 6.04004 24.6667 5.80004 24.6667 5.56004C25.7129 4.77978 26.6153 3.82327 27.3334 2.73337Z" fill="white"/>
</svg>
